<?xml version="1.0" encoding="UTF-8" standalone="no"?>
<!-- Created with Inkscape (http://www.inkscape.org/) -->

<svg
   xmlns:dc="http://purl.org/dc/elements/1.1/"
   xmlns:cc="http://creativecommons.org/ns#"
   xmlns:rdf="http://www.w3.org/1999/02/22-rdf-syntax-ns#"
   xmlns:svg="http://www.w3.org/2000/svg"
   xmlns="http://www.w3.org/2000/svg"
   xmlns:sodipodi="http://sodipodi.sourceforge.net/DTD/sodipodi-0.dtd"
   xmlns:inkscape="http://www.inkscape.org/namespaces/inkscape"
   width="36.095291"
   height="36.095291"
   viewBox="0 0 10 10"
   version="1.1"
   id="svg285"
   inkscape:version="0.92.0 r15299"
   sodipodi:docname="metlife.svg">
  <defs
     id="defs279">
    <clipPath
       id="clipPath80"
       clipPathUnits="userSpaceOnUse">
      <path
         inkscape:connector-curvature="0"
         id="path78"
         d="M 24.62,29.48 H 170.579 V 68.4 H 24.62 Z" />
    </clipPath>
  </defs>
  <sodipodi:namedview
     id="base"
     pagecolor="#ffffff"
     bordercolor="#666666"
     borderopacity="1.0"
     inkscape:pageopacity="0.0"
     inkscape:pageshadow="2"
     inkscape:zoom="4.9084732"
     inkscape:cx="81.695465"
     inkscape:cy="17.547677"
     inkscape:document-units="mm"
     inkscape:current-layer="layer1"
     showgrid="false"
     units="px"
     fit-margin-top="0"
     fit-margin-left="0"
     fit-margin-right="0"
     fit-margin-bottom="0"
     inkscape:window-width="1280"
     inkscape:window-height="744"
     inkscape:window-x="-4"
     inkscape:window-y="-4"
     inkscape:window-maximized="1" />
  <metadata
     id="metadata282">
    <rdf:RDF>
      <cc:Work
         rdf:about="">
        <dc:format>image/svg+xml</dc:format>
        <dc:type
           rdf:resource="http://purl.org/dc/dcmitype/StillImage" />
        <dc:title></dc:title>
      </cc:Work>
    </rdf:RDF>
  </metadata>
  <g
     inkscape:label="Layer 1"
     inkscape:groupmode="layer"
     id="layer1"
     transform="translate(-68.343075,-171.14023)">
    <g
       id="g74"
       transform="matrix(0.35277777,0,0,-0.35277777,56.044713,193.23765)">
      <g
         id="g76"
         clip-path="url(#clipPath80)">
        <g
           id="g86"
           transform="translate(49.5279,53.7339)">
          <path
             d="m 0,0 c 2.951,-3.907 4.702,-8.773 4.702,-14.051 0,-1.273 -0.103,-2.522 -0.3,-3.741 h 8.544 c 0.743,0 1.345,0.604 1.345,1.349 V 7.178 c 0,0.88 -0.829,1.531 -1.678,1.307 C 7.511,7.138 3.095,4.098 0,0"
             style="fill:#99d538;fill-opacity:1;fill-rule:nonzero;stroke:none"
             id="path88"
             inkscape:connector-curvature="0" />
        </g>
        <g
           id="g90"
           transform="translate(45.1255,35.9424)">
          <path
             d="m 0,0 c -0.196,1.218 -0.3,2.467 -0.3,3.741 0,5.277 1.752,10.144 4.702,14.051 C 1.307,21.89 -3.109,24.93 -8.211,26.276 -9.06,26.5 -9.889,25.85 -9.889,24.97 V 1.348 C -9.889,0.604 -9.286,0 -8.543,0 Z"
             style="fill:#239de0;fill-opacity:1;fill-rule:nonzero;stroke:none"
             id="path92"
             inkscape:connector-curvature="0" />
        </g>
        <g
           id="g94"
           transform="translate(49.5279,53.7339)">
          <path
             d="m 0,0 c -2.951,-3.907 -4.702,-8.773 -4.702,-14.051 0,-1.273 0.103,-2.522 0.3,-3.741 h 8.804 c 0.197,1.219 0.3,2.468 0.3,3.741 C 4.702,-8.773 2.951,-3.907 0,0"
             style="fill:#1563a9;fill-opacity:1;fill-rule:nonzero;stroke:none"
             id="path96"
             inkscape:connector-curvature="0" />
        </g>
      </g>
    </g>
  </g>
</svg>
